<!DOCTYPE svg PUBLIC "-//W3C//DTD SVG 1.1//EN" "http://www.w3.org/Graphics/SVG/1.1/DTD/svg11.dtd">
<!-- Uploaded to: SVG Repo, www.svgrepo.com, Transformed by: SVG Repo Mixer Tools -->
<svg height="64px" width="64px" version="1.1" id="Layer_1" xmlns="http://www.w3.org/2000/svg" xmlns:xlink="http://www.w3.org/1999/xlink" viewBox="-50.64 -50.64 607.68 607.68" xml:space="preserve" fill="#000000">
<g id="SVGRepo_bgCarrier" stroke-width="0">
<path transform="translate(-50.64, -50.64), scale(18.99)" d="M16,30.749082089867443C18.704734928804836,30.52610623981549,20.55671693303986,28.109903722487125,22.823925331607768,26.618235078898202C25.061930897547214,25.145779909361053,28.483464638460802,24.615176081515138,29.23242684366965,22.04304685563217C29.99946457291819,19.40884162199835,26.751614443179655,17.22594467363676,26.349055248462072,14.5120304919164C25.949444748518992,11.817995385549672,28.183919662775676,8.94640981286065,26.931079867965032,6.528165376386129C25.66346625718525,4.081404366267587,22.770533505370047,2.5053923243507823,20.022532891023456,2.3005110650291325C17.37942095932819,2.1034499369250663,15.43289584661115,4.66470034590761,12.911914230095535,5.482945700840869C10.49465654861045,6.267524952269796,7.525745166574044,5.331643928768634,5.594411022251519,6.98350582476521C3.618891734229078,8.673159086622315,2.655111677434457,11.512689660416278,2.8295238396751383,14.106371406567023C2.994604357360491,16.56128234778204,5.564145001031404,18.063325044558955,6.4926924996147335,20.341841853689644C7.482296211119645,22.770181485730244,6.643946188330286,25.870275428121264,8.412554817664759,27.806295156999827C10.28000609817752,29.850513681000084,13.240569933054918,30.976566956603673,16,30.749082089867443" fill="#7ed0ec" strokewidth="0"/>
</g>
<g id="SVGRepo_tracerCarrier" stroke-linecap="round" stroke-linejoin="round"/>
<g id="SVGRepo_iconCarrier"> <path style="fill:#36ec55;" d="M502.4,253.2c0,137.6-111.6,249.2-249.2,249.2S4,390.8,4,253.2S115.6,4,253.2,4 S502.4,115.6,502.4,253.2z"/> <path style="fill:#48ea66;" d="M427.6,104.4c34.4,40,54.8,92,54.8,148.8c0,126.8-102.8,229.6-229.6,229.6S23.6,380,23.6,253.2 S126.4,24,253.2,24C310,24,362,44.4,402,78.8C402,78.4,417.6,92.8,427.6,104.4z"/> <path style="fill:#0a0a0a;" d="M212.8,370c-17.2,12-31.6,4.4-31.6-16.8v-200c0-21.2,14.4-28.8,31.6-16.8l138,95.2 c17.2,12,17.2,31.2,0,43.2L212.8,370z"/> <path d="M195.2,379.6c-3.6,0-6.8-0.8-9.6-2.4c-7.6-4-12-12.8-12-24v-200c0-11.2,4.4-20,12-24c8-4,18-2.8,28,4l138.8,95.2 c9.2,6.4,14.4,15.2,14.4,24.4c0,9.6-5.6,18.8-14.8,25.2l-138.8,95.2C207.2,377.6,200.8,379.6,195.2,379.6z M195.2,134.8 c-2.4,0-4.4,0.4-6,1.6c-4.8,2.8-8,8.8-8,16.8v200c0,8,2.8,14.4,8,16.8c5.2,2.8,12.4,1.6,19.6-3.6l0,0l138.4-95.2 c7.6-5.2,11.6-11.6,11.6-18.8c0-6.8-4-13.2-10.8-18l-139.2-95.2C204,136.4,199.2,134.8,195.2,134.8z"/> <path d="M253.2,506.4C113.6,506.4,0,392.8,0,253.2S113.6,0,253.2,0s253.2,113.6,253.2,253.2S392.8,506.4,253.2,506.4z M253.2,8 C118,8,8,118,8,253.2s110,245.2,245.2,245.2s245.2-110,245.2-245.2S388.4,8,253.2,8z"/> </g>
</svg>